<?xml version="1.0" encoding="utf-8"?>
<!-- Generator: Adobe Illustrator 22.0.1, SVG Export Plug-In . SVG Version: 6.00 Build 0)  -->
<svg version="1.1" id="Layer_1" xmlns="http://www.w3.org/2000/svg" xmlns:xlink="http://www.w3.org/1999/xlink" x="0px" y="0px"
	 viewBox="0 0 200 200" style="enable-background:new 0 0 200 200;" xml:space="preserve">
<style type="text/css">
	.st0{fill:none;stroke:#A58AC0;stroke-width:3;stroke-miterlimit:10;}
	.st1{fill:#A58AC0;}
</style>
<path class="st0" d="M69.8,90.2c-0.5,6.7-0.2,11.7,1.5,18.2c0.8,3.2,3.8,7.2,5.6,10c4,6,10.9,9.1,18,9.5c6.6,0.4,13.6-0.4,19.1-4
	c7.2-4.6,11-13.2,12.6-21.6c3.6-18.4-1.8-34.5-13.1-50.1c-1.5-2-5.4-6.6-8.2-9.8c-2.8-3.3-5.1-7.5-7.6-6.2c-1.5,0.8-2.8,3.1-4.6,5.5
	c-2.8,3.9-6.1,8.4-7.7,10.8C78,63.1,70.9,76.9,69.8,90.2z"/>
<path class="st0" d="M138.4,60.3c10.2-8,18-9.9,30.9-11.8c-4,5.1-4.6,11.9-5.7,18.2c-0.7,3.8-1.6,7.6-2.5,11.3
	c-2.4,9.2-5.4,18.4-10.2,26.6c-4.8,8.2-11.5,15.6-20,19.9c-6,3.1-13.4,4.5-19.2,1.3c9.6-8.1,17.3-20.6,17.2-33.1
	c-0.1-5.8-1.8-15.3-1.1-21C128.3,67.1,134.9,63.1,138.4,60.3z"/>
<g>
	<path class="st1" d="M168.1,49.1c-4.4,3.1-8.6,6.5-12.3,10.4c-3.8,3.8-7.1,8-10,12.5c-3,4.5-5.4,9.3-8.3,13.8
		c-2.9,4.5-6,9.1-9.7,13.1l-0.2-0.2c2.3-4.9,4.8-9.7,7.3-14.5c2.6-4.8,5.7-9.3,8.9-13.7c3.2-4.4,6.9-8.5,10.9-12.2
		c4.1-3.6,8.5-6.9,13.2-9.6L168.1,49.1z"/>
</g>
<g>
	<path class="st1" d="M112.8,50.3c2.2-3.7,4.8-7.1,7.8-10.2c3-3.1,6.3-5.9,9.8-8.4l1.1-0.8l0.6,1.3c0.9,2,2.2,3.8,3.6,5.4
		c1.5,1.7,3,3.4,4.5,5.3c1.4,1.9,2.7,4,3.6,6.3c0.9,2.3,1.2,4.9,0.6,7.2l-0.3,0c-0.3-2.3-1.1-4.3-2.3-6.2c-1.1-1.9-2.5-3.6-4-5.3
		c-1.5-1.7-3-3.4-4.4-5.4c-1.4-1.9-2.7-4-3.5-6.4l1.7,0.5c-3.6,2.1-6.9,4.6-10.1,7.4c-3.1,2.8-6,5.9-8.5,9.3L112.8,50.3z"/>
</g>
<path class="st0" d="M154.5,97.6c4.9-4.2,13.5-5.8,20-6c5.8-0.2,11.7-0.2,17.5-0.1c-6.5,5.9-10.3,14.1-16.4,20.5
	c-5.7,5.9-13.1,9.9-20.7,13.1c-4.9,2.1-9.9,3.8-15.1,4.6s-12.4,0-17.2-2.1"/>
<g>
	<path class="st1" d="M190.3,92.8c-2,0-3.9,0.4-5.8,0.9c-1.9,0.5-3.7,1.2-5.5,1.9c-1.8,0.7-3.5,1.6-5.3,2.5l-5.3,2.7
		c-3.5,1.8-6.9,3.8-10.5,5.4c-3.6,1.6-7.1,3-10.6,4.9l-0.2-0.2c1.2-1.7,2.7-3,4.4-4.2c1.6-1.2,3.4-2.2,5.1-3.2
		c3.5-1.9,7.2-3.3,10.8-4.8l5.5-2.2c1.8-0.7,3.6-1.5,5.6-2.1c1.9-0.6,3.8-1.1,5.8-1.5c2-0.3,4-0.6,6-0.4L190.3,92.8z"/>
</g>
<g>
	<path class="st1" d="M80.8,128.6c-1.2,1.6-2.1,3.3-2.1,5.1c-0.1,1.8,0.4,3.6,1,5.3c0.8,3.5,2.6,7,4.4,10.4c0.9,1.7,1.9,3.3,3,4.7
		c1.1,1.5,2.4,2.7,3.9,3.9c1.5,1.2,3.1,2.4,4.6,3.9c1.5,1.5,2.8,3.4,3.4,5.7l-2.9-0.2c0.4-1.1,0.9-2.1,1.5-3
		c0.6-0.9,1.3-1.8,2.1-2.6c1.5-1.6,3.2-2.9,4.8-4.1c1.6-1.2,3.2-2.4,4.6-3.7c1.4-1.3,2.8-2.7,3.9-4.2c2.3-3.1,4.2-6.5,5.2-10.2
		c0.7-1.8,1.2-3.7,1.5-5.6c0.3-1.9,0.3-3.9,0.2-6c0.8,1.9,1.3,3.9,1.5,6c0.2,2.1,0.1,4.2-0.3,6.4c-1.2,4.1-3.1,7.9-5.7,11.3
		c-1.3,1.7-2.7,3.2-4.3,4.6c-1.6,1.4-3.2,2.6-4.8,3.9c-3.2,2.4-6.2,4.9-7.4,8.3l-1.7,5l-1.2-5.1c-0.3-1.5-1.3-2.9-2.6-4.2
		c-1.3-1.3-2.8-2.4-4.3-3.7c-1.5-1.2-3.1-2.7-4.3-4.4c-1.3-1.6-2.3-3.4-3.3-5.1c-1-1.8-1.8-3.5-2.7-5.3c-0.4-0.9-0.8-1.9-1.1-2.8
		c-0.3-1-0.7-1.9-0.9-3c-0.1-1-0.2-2.1-0.2-3.1c0-1,0.1-2.1,0.5-3.2c0.3-1,0.8-2,1.5-2.8C79.3,129.9,80,129.2,80.8,128.6z"/>
</g>
<g>
	<path class="st1" d="M100.8,127.7c0.3,3,0.2,5.9-0.2,8.8c-0.4,2.9-1.1,5.7-2.3,8.3c0.7-2.8,0.9-5.6,0.8-8.4
		c-0.1-2.8-0.5-5.5-1.2-8.1L100.8,127.7z"/>
</g>
<g>
	<path class="st1" d="M114.6,151.2c2.2,0.9,4.3,1.2,6.4,1.2c2.1,0.4,4.2,0.6,6.5,0.7c2.2,0.1,4.5,0.2,6.8,0.6
		c2.3,0.4,4.7,1.1,6.9,2.4l-2.3,1.5c-0.4-2.5-0.4-4.9-0.3-7.3c0.1-2.4,0.3-4.7,0.4-6.9c0-2.2-0.2-4.4-0.7-6.6c0-2.3-0.3-4.5-0.8-6.9
		c1.7,1.8,2.8,4,3.8,6.2c0.5,2.4,0.8,4.8,0.7,7.3c-0.1,2.4-0.3,4.7-0.4,7c-0.1,2.3-0.1,4.5,0.2,6.7l0.5,3.2l-2.7-1.7
		c-1.7-1-3.7-1.6-5.8-2c-2.1-0.3-4.3-0.5-6.5-0.6c-2.2-0.1-4.6-0.3-6.9-0.8C118.2,154.3,116,153,114.6,151.2z"/>
</g>
<g>
	<path class="st1" d="M122.5,127.4c1.4,2.5,2.4,5,3.5,7.4c1.1,2.4,2.2,4.9,3.8,7c-2-1.8-3.6-4.1-5.1-6.3c-1.5-2.2-3-4.5-4.7-6.4
		L122.5,127.4z"/>
</g>
<path class="st0" d="M140.6,141.5c11.3-0.1,24.4-6.7,32.1-14.9c-2.1-1.9-5.1-4.5-7.3-6.4"/>
<path class="st0" d="M64.9,64.5c-10.2-8-22.6-13.2-35.4-15c4,5.1,4.6,11.9,5.7,18.2c0.7,3.8,1.6,7.6,2.5,11.3
	c2.4,9.2,5.4,18.4,10.2,26.6s11.5,15.6,20,19.9c6,3.1,13.4,4.5,19.2,1.3c-5-4.2-10.7-8.4-13.9-14c-2.9-5.1-3.4-11.7-3.3-17.7
	c0.1-5.8,2.1-15.5,1.4-21.3C70.7,69.3,68.4,67.2,64.9,64.5z"/>
<g>
	<path class="st1" d="M30.8,49.8c4.5,2.6,8.8,5.7,12.7,9.1c3.9,3.5,7.5,7.4,10.6,11.6c3.2,4.2,6.2,8.5,8.6,13.1
		c1.2,2.3,2.4,4.6,3.6,6.9c1.2,2.3,2.3,4.6,3.4,7l-0.2,0.2c-3.6-3.8-6.5-8.2-9.3-12.6c-2.8-4.4-5.1-9-8-13.2
		c-2.9-4.2-6.1-8.3-9.7-11.9c-3.6-3.7-7.6-7-11.8-10L30.8,49.8z"/>
</g>
<g>
	<path class="st1" d="M85.5,51.3c-2.5-3.4-5.3-6.5-8.4-9.3c-3.1-2.8-6.4-5.3-9.9-7.4l1.7-0.5c-0.9,2.3-2.2,4.4-3.5,6.4
		c-1.4,1.9-2.9,3.7-4.4,5.4c-1.5,1.7-2.8,3.4-4,5.3c-1.1,1.9-2,3.9-2.3,6.2l-0.3,0c-0.6-2.3-0.3-4.9,0.6-7.2
		c0.8-2.3,2.1-4.4,3.6-6.3c1.4-1.9,3-3.6,4.5-5.3c1.5-1.7,2.8-3.5,3.6-5.4l0.6-1.3l1.1,0.8c3.5,2.4,6.8,5.2,9.7,8.3
		c2.9,3.1,5.5,6.5,7.6,10.1L85.5,51.3z"/>
</g>
<path class="st0" d="M43.9,97.6c-4.9-4.2-13.1-4.9-19.6-5.1c-5.8-0.2-11.7-0.2-17.5-0.1c6.5,5.9,10.3,14.1,16.4,20.5
	c5.7,5.9,13.1,9.9,20.7,13.1c4.9,2.1,9.9,3.8,15.1,4.6c5.2,0.7,12.5,0,17.4-2.2"/>
<g>
	<path class="st1" d="M10.4,93.6c1.9-0.2,3.9,0,5.7,0.4c1.9,0.4,3.7,1.1,5.5,1.7c3.5,1.4,7.1,2.8,10.6,4.3c3.5,1.5,7.1,2.8,10.4,4.7
		c1.6,0.9,3.3,1.8,4.9,2.9c1.6,1.1,3.2,2.3,4.4,3.9l-0.2,0.2c-3.3-1.8-6.9-2.7-10.5-4.3c-3.5-1.5-6.7-3.5-10.1-5.2
		c-3.4-1.7-6.8-3.4-10.2-5.1c-3.4-1.7-6.9-3.2-10.6-3.2L10.4,93.6z"/>
</g>
<g>
	<path class="st1" d="M84.2,152.1c-1.4,1.9-3.6,3.2-5.8,4.1c-2.3,0.5-4.7,0.6-6.9,0.8c-2.2,0.1-4.4,0.2-6.5,0.6
		c-2.1,0.3-4.1,0.9-5.8,2l-2.7,1.7l0.5-3.2c0.3-2.1,0.3-4.3,0.2-6.6c-0.1-2.3-0.3-4.5-0.4-6.9c-0.1-2.4,0.2-4.8,0.6-7.2
		c0.9-2.3,2.1-4.4,3.8-6.2c-0.6,2.3-0.8,4.6-0.8,6.8c-0.5,2.1-0.7,4.3-0.6,6.5c0.2,4.4,0.9,9.2,0.1,14l-2.3-1.5
		c2.1-1.3,4.5-2,6.9-2.4c2.3-0.4,4.6-0.5,6.8-0.6c2.2-0.1,4.4-0.3,6.5-0.7C79.9,153.3,82,153,84.2,152.1z"/>
</g>
<g>
	<path class="st1" d="M79,129.9c-1.1,1.5-2.2,2.8-3.4,4.1c-1.2,1.3-2.3,2.5-3.5,3.8c-2.4,2.5-4.8,4.9-7.3,7.2
		c2.1-2.7,4.2-5.4,6.1-8.2c1-1.4,2-2.8,2.9-4.2c0.9-1.4,1.9-2.9,2.6-4.2L79,129.9z"/>
</g>
<path class="st0" d="M58.2,142.5c-11.3-0.1-24.4-6.7-32.1-14.9c2.1-1.9,5.9-4.9,8-6.8"/>
</svg>
